<svg data-v-423bf9ae="" xmlns="http://www.w3.org/2000/svg" viewBox="0 0 1054.5327446338047 193" class="fontAboveSlogan"><!----><!----><!----><g data-v-423bf9ae="" id="dab88453-08c3-4717-9469-967b4ff0e4a8" fill="#6E2E2E" transform="matrix(11.772399923843276,0,0,11.772399923843276,447.0467269772746,-41.529284370499894)"><path d="M8.83 3.94L8.83 3.94L8.83 3.94Q8.90 3.92 8.89 4.04L8.89 4.04L8.89 4.04Q8.89 4.17 8.79 4.32L8.79 4.32L8.79 4.32Q8.69 4.49 8.51 4.82L8.51 4.82L8.51 4.82Q8.33 5.14 8.07 5.64L8.07 5.64L8.07 5.64Q7.81 6.14 7.46 6.82L7.46 6.82L7.46 6.82Q7.12 7.50 6.69 8.39L6.69 8.39L6.69 8.39Q6.35 9.08 6.00 9.80L6.00 9.80L6.00 9.80Q5.65 10.51 5.33 11.18L5.33 11.18L5.33 11.18Q5.01 11.85 4.74 12.45L4.74 12.45L4.74 12.45Q4.48 13.05 4.30 13.53L4.30 13.53L4.30 13.53Q4.28 13.58 4.21 13.60L4.21 13.60L4.21 13.60Q4.14 13.62 4.10 13.60L4.10 13.60L4.10 13.60Q4.08 13.58 4.08 13.56L4.08 13.56L4.08 13.56Q4.09 13.54 4.09 13.51L4.09 13.51L4.09 13.51Q4.08 13.47 4.07 13.48L4.07 13.48L4.07 13.48Q4.05 13.49 4.02 13.52L4.02 13.52L4.02 13.52Q3.98 13.55 3.91 13.58L3.91 13.58L3.91 13.58Q3.84 13.62 3.73 13.62L3.73 13.62L3.73 13.62Q3.59 13.62 3.55 13.58L3.55 13.58L3.55 13.58Q3.51 13.53 3.45 13.39L3.45 13.39L3.45 13.39Q3.43 13.36 3.32 13.02L3.32 13.02L3.32 13.02Q3.20 12.67 3.02 12.12L3.02 12.12L3.02 12.12Q2.84 11.57 2.60 10.86L2.60 10.86L2.60 10.86Q2.36 10.15 2.10 9.38L2.10 9.38L2.10 9.38Q1.83 8.60 1.56 7.81L1.56 7.81L1.56 7.81Q1.29 7.02 1.03 6.31L1.03 6.31L1.03 6.31Q0.77 5.61 0.54 5.03L0.54 5.03L0.54 5.03Q0.32 4.46 0.16 4.11L0.16 4.11L0.16 4.11Q0.12 4.05 0.17 3.96L0.17 3.96L0.17 3.96Q0.23 3.88 0.31 3.86L0.31 3.86L0.31 3.86Q0.36 3.83 0.40 3.87L0.40 3.87L0.40 3.87Q0.43 3.90 0.46 3.90L0.46 3.90L0.46 3.90Q0.49 3.90 0.52 3.87L0.52 3.87L0.52 3.87Q0.55 3.85 0.58 3.82L0.58 3.82L0.58 3.82Q0.62 3.80 0.64 3.78L0.64 3.78L0.64 3.78Q0.67 3.77 0.70 3.77L0.70 3.77L0.70 3.77Q0.72 3.78 0.75 3.79L0.75 3.79L0.75 3.79Q0.79 3.80 0.87 3.79L0.87 3.79L0.87 3.79Q0.90 3.76 0.94 3.74L0.94 3.74L0.99 3.71L0.99 3.71Q1.07 3.69 1.12 3.70L1.12 3.70L1.12 3.70Q1.18 3.71 1.22 3.68L1.22 3.68L1.22 3.68Q1.26 3.66 1.30 3.64L1.30 3.64L1.30 3.64Q1.33 3.62 1.35 3.62L1.35 3.62L1.35 3.62Q1.38 3.62 1.42 3.66L1.42 3.66L1.42 3.66Q1.46 3.70 1.52 3.81L1.52 3.81L1.52 3.81Q1.56 3.89 1.67 4.20L1.67 4.20L1.67 4.20Q1.78 4.50 1.95 4.97L1.95 4.97L1.95 4.97Q2.11 5.43 2.32 6.01L2.32 6.01L2.32 6.01Q2.52 6.60 2.74 7.24L2.74 7.24L2.74 7.24Q2.96 7.88 3.18 8.53L3.18 8.53L3.18 8.53Q3.40 9.18 3.61 9.79L3.61 9.79L3.61 9.79Q3.81 10.39 3.98 10.91L3.98 10.91L3.98 10.91Q4.15 11.42 4.26 11.78L4.26 11.78L4.26 11.78Q4.41 11.41 4.65 10.87L4.65 10.87L4.65 10.87Q4.89 10.34 5.19 9.71L5.19 9.71L5.19 9.71Q5.48 9.08 5.80 8.39L5.80 8.39L5.80 8.39Q6.12 7.71 6.43 7.05L6.43 7.05L6.43 7.05Q6.75 6.38 7.04 5.78L7.04 5.78L7.04 5.78Q7.33 5.18 7.55 4.72L7.55 4.72L7.55 4.72Q7.78 4.26 7.92 3.98L7.92 3.98L7.92 3.98Q8.07 3.69 8.09 3.66L8.09 3.66L8.09 3.66Q8.16 3.56 8.19 3.58L8.19 3.58L8.19 3.58Q8.23 3.60 8.29 3.62L8.29 3.62L8.29 3.62Q8.35 3.64 8.35 3.66L8.35 3.66L8.35 3.66Q8.36 3.68 8.36 3.69L8.36 3.69L8.36 3.69Q8.36 3.71 8.37 3.73L8.37 3.73L8.37 3.73Q8.39 3.75 8.46 3.76L8.46 3.76L8.46 3.76Q8.50 3.76 8.52 3.78L8.52 3.78L8.52 3.78Q8.54 3.79 8.57 3.82L8.57 3.82L8.57 3.82Q8.59 3.84 8.63 3.87L8.63 3.87L8.63 3.87Q8.66 3.89 8.74 3.90L8.74 3.90L8.74 3.90Q8.76 3.90 8.77 3.91L8.77 3.91L8.77 3.91Q8.78 3.92 8.79 3.93L8.79 3.93L8.79 3.93Q8.79 3.94 8.80 3.94L8.80 3.94L8.80 3.94Q8.80 3.94 8.83 3.94ZM13.62 8.08L13.62 8.08L13.62 8.08Q13.60 8.12 13.51 8.33L13.51 8.33L13.51 8.33Q13.41 8.53 13.27 8.84L13.27 8.84L13.27 8.84Q13.12 9.15 12.93 9.55L12.93 9.55L12.93 9.55Q12.74 9.95 12.54 10.38L12.54 10.38L12.54 10.38Q12.34 10.81 12.13 11.26L12.13 11.26L12.13 11.26Q11.93 11.70 11.74 12.10L11.74 12.10L11.74 12.10Q11.55 12.50 11.40 12.84L11.40 12.84L11.40 12.84Q11.25 13.17 11.14 13.39L11.14 13.39L11.14 13.39Q11.11 13.45 11.06 13.51L11.06 13.51L11.06 13.51Q11.02 13.58 10.97 13.62L10.97 13.62L10.97 13.62Q10.92 13.67 10.87 13.70L10.87 13.70L10.87 13.70Q10.82 13.73 10.78 13.73L10.78 13.73L10.78 13.73Q10.74 13.73 10.69 13.71L10.69 13.71L10.69 13.71Q10.64 13.70 10.60 13.70L10.60 13.70L10.60 13.70Q10.58 13.71 10.56 13.73L10.56 13.73L10.56 13.73Q10.55 13.75 10.53 13.76L10.53 13.76L10.53 13.76Q10.51 13.77 10.49 13.77L10.49 13.77L10.49 13.77Q10.47 13.77 10.43 13.74L10.43 13.74L10.43 13.74Q10.40 13.71 10.37 13.70L10.37 13.70L10.37 13.70Q10.34 13.69 10.31 13.69L10.31 13.69L10.31 13.69Q10.27 13.68 10.25 13.67L10.25 13.67L10.25 13.67Q10.23 13.65 10.22 13.61L10.22 13.61L10.22 13.61Q10.20 13.51 10.13 13.32L10.13 13.32L10.13 13.32Q10.07 13.13 9.95 12.78L9.95 12.78L9.95 12.78Q9.84 12.43 9.66 11.88L9.66 11.88L9.66 11.88Q9.49 11.33 9.26 10.52L9.26 10.52L9.26 10.52Q9.15 10.17 9.03 9.78L9.03 9.78L9.03 9.78Q8.91 9.39 8.79 9.06L8.79 9.06L8.79 9.06Q8.68 8.72 8.60 8.47L8.60 8.47L8.60 8.47Q8.51 8.22 8.48 8.14L8.48 8.14L8.48 8.14Q8.42 7.98 8.44 7.93L8.44 7.93L8.44 7.93Q8.46 7.88 8.55 7.89L8.55 7.89L8.55 7.89Q8.61 7.90 8.70 7.92L8.70 7.92L8.70 7.92Q8.78 7.94 8.86 7.96L8.86 7.96L8.86 7.96Q8.93 7.98 9.00 8.00L9.00 8.00L9.00 8.00Q9.06 8.02 9.10 8.03L9.10 8.03L9.10 8.03Q9.13 8.04 9.14 8.03L9.14 8.03L9.14 8.03Q9.15 8.01 9.16 7.99L9.16 7.99L9.16 7.99Q9.17 7.98 9.18 7.96L9.18 7.96L9.18 7.96Q9.20 7.94 9.24 7.94L9.24 7.94L9.24 7.94Q9.28 7.94 9.30 7.93L9.30 7.93L9.30 7.93Q9.32 7.92 9.33 7.91L9.33 7.91L9.33 7.91Q9.34 7.90 9.37 7.89L9.37 7.89L9.37 7.89Q9.39 7.88 9.45 7.88L9.45 7.88L9.45 7.88Q9.56 7.88 9.60 7.90L9.60 7.90L9.60 7.90Q9.64 7.92 9.66 8.00L9.66 8.00L9.66 8.00Q9.67 8.02 9.72 8.26L9.72 8.26L9.72 8.26Q9.78 8.51 9.88 8.89L9.88 8.89L9.88 8.89Q9.98 9.27 10.11 9.74L10.11 9.74L10.11 9.74Q10.23 10.21 10.37 10.66L10.37 10.66L10.37 10.66Q10.51 11.12 10.66 11.53L10.66 11.53L10.66 11.53Q10.81 11.93 10.94 12.18L10.94 12.18L10.94 12.18Q11.01 12.05 11.13 11.80L11.13 11.80L11.13 11.80Q11.25 11.55 11.40 11.22L11.40 11.22L11.40 11.22Q11.55 10.89 11.73 10.51L11.73 10.51L11.73 10.51Q11.92 10.13 12.10 9.75L12.10 9.75L12.10 9.75Q12.28 9.37 12.44 9.01L12.44 9.01L12.44 9.01Q12.61 8.65 12.75 8.37L12.75 8.37L12.75 8.37Q12.89 8.08 12.98 7.89L12.98 7.89L12.98 7.89Q13.08 7.70 13.10 7.66L13.10 7.66L13.10 7.66Q13.13 7.62 13.15 7.60L13.15 7.60L13.15 7.60Q13.17 7.59 13.19 7.60L13.19 7.60L13.19 7.60Q13.21 7.61 13.23 7.63L13.23 7.63L13.23 7.63Q13.25 7.65 13.28 7.66L13.28 7.66L13.28 7.66Q13.34 7.70 13.41 7.75L13.41 7.75L13.41 7.75Q13.48 7.79 13.54 7.85L13.54 7.85L13.54 7.85Q13.60 7.90 13.62 7.96L13.62 7.96L13.62 7.96Q13.65 8.03 13.62 8.08Z"></path></g><!----><!----><g data-v-423bf9ae="" id="de1538b3-370a-439c-8013-744c0e7f2489" fill="#601717" transform="matrix(5.964214462953878,0,0,5.964214462953878,-2.2663908804580615,116.65804826151134)"><path d="M0.87 3.64L0.38 3.64L0.38 3.08L3.89 3.08L3.88 3.64L3.14 3.64L3.14 3.64Q2.80 3.64 2.80 3.82L2.80 3.82L2.80 3.82Q2.80 3.98 2.99 4.48L2.99 4.48L5.60 10.94L8.54 4.18L8.54 4.18Q8.61 3.97 8.61 3.92L8.61 3.92L8.61 3.92Q8.61 3.79 8.51 3.74L8.51 3.74L8.51 3.74Q8.42 3.68 8.27 3.65L8.27 3.65L8.27 3.65Q8.19 3.64 7.92 3.64L7.92 3.64L7.48 3.64L7.45 3.08L10.29 3.08L10.26 3.64L9.86 3.64L9.86 3.64Q9.54 3.64 9.38 3.83L9.38 3.83L9.38 3.83Q9.30 3.93 8.83 4.94L8.83 4.94L8.83 4.94Q8.62 5.46 8.55 5.57L8.55 5.57L5.42 12.63L5.18 12.63L1.93 4.73L1.93 4.73Q1.61 3.93 1.47 3.79L1.47 3.79L1.47 3.79Q1.31 3.63 0.87 3.64L0.87 3.64ZM18.04 12.41L18.03 11.87L18.20 11.87L18.20 11.87Q18.59 11.87 18.72 11.73L18.72 11.73L18.72 11.73Q18.84 11.57 19.17 10.83L19.17 10.83L20.08 8.82L20.66 7.53L20.66 7.53Q20.92 6.97 20.97 6.86L20.97 6.86L20.97 6.86Q21.03 6.70 21.09 6.60L21.09 6.60L21.09 6.60Q21.14 6.51 21.15 6.45L21.15 6.45L21.25 6.21L22.67 2.74L22.97 2.74L22.97 2.74Q23.82 4.98 26.01 10.25L26.01 10.25L26.01 10.25Q26.46 11.34 26.65 11.64L26.65 11.64L26.65 11.64Q26.79 11.87 27.23 11.87L27.23 11.87L27.44 11.87L27.43 12.41L24.23 12.41L24.25 11.87L24.66 11.87L24.66 11.87Q25.28 11.87 25.28 11.70L25.28 11.70L25.28 11.70Q25.28 11.63 25.14 11.27L25.14 11.27L24.10 8.72L20.86 8.72L19.75 11.18L19.75 11.18Q19.61 11.50 19.61 11.63L19.61 11.63L19.61 11.63Q19.61 11.79 19.71 11.83L19.71 11.83L19.71 11.83Q19.80 11.87 20.19 11.87L20.19 11.87L20.76 11.87L20.76 12.41L18.04 12.41ZM22.54 4.79L21.12 8.10L23.86 8.10L22.54 4.79ZM35.14 10.04L35.14 10.04L35.64 9.98L35.82 10.85L35.82 10.85Q35.93 11.33 36.00 11.41L36.00 11.41L36.00 11.41Q36.07 11.49 36.48 11.64L36.48 11.64L36.48 11.64Q37.32 11.95 38.21 11.95L38.21 11.95L38.21 11.95Q39.00 11.95 39.54 11.49L39.54 11.49L39.54 11.49Q40.07 11.04 40.07 10.26L40.07 10.26L40.07 10.26Q40.07 9.65 39.61 9.21L39.61 9.21L39.61 9.21Q39.14 8.76 38.28 8.30L38.28 8.30L37.71 7.98L37.71 7.98Q36.96 7.55 36.73 7.36L36.73 7.36L36.73 7.36Q36.37 7.08 36.06 6.59L36.06 6.59L36.06 6.59Q35.75 6.10 35.75 5.46L35.75 5.46L35.75 5.46Q35.75 4.39 36.59 3.68L36.59 3.68L36.59 3.68Q37.43 2.97 38.53 2.97L38.53 2.97L38.53 2.97Q38.81 2.97 39.16 3.04L39.16 3.04L39.16 3.04Q39.36 3.08 39.70 3.17L39.70 3.17L39.94 3.25L39.94 3.25Q40.03 3.25 40.07 3.16L40.07 3.16L40.07 3.16Q40.13 3.05 40.13 2.98L40.13 2.98L40.14 2.88L40.62 2.85L40.83 5.41L40.33 5.43L40.20 4.18L40.20 4.18Q39.46 3.62 38.29 3.62L38.29 3.62L38.29 3.62Q37.65 3.62 37.15 4.05L37.15 4.05L37.15 4.05Q36.67 4.47 36.67 5.12L36.67 5.12L36.67 5.12Q36.67 5.72 37.12 6.17L37.12 6.17L37.12 6.17Q37.55 6.60 38.42 7.08L38.42 7.08L39.19 7.50L39.19 7.50Q40.14 8.03 40.67 8.59L40.67 8.59L40.67 8.59Q41.21 9.15 41.21 9.92L41.21 9.92L41.21 9.92Q41.21 10.99 40.35 11.76L40.35 11.76L40.35 11.76Q39.48 12.54 38.03 12.54L38.03 12.54L38.03 12.54Q37.47 12.54 36.97 12.41L36.97 12.41L36.97 12.41Q36.46 12.29 36.41 12.29L36.41 12.29L36.41 12.29Q36.16 12.29 36.16 12.58L36.16 12.58L36.17 12.76L35.69 12.80L35.69 12.80Q35.63 12.41 35.14 10.04ZM49.67 5.35L49.17 5.33L49.17 5.33Q49.29 4.17 49.38 3.08L49.38 3.08L57.46 3.08L57.46 3.08Q57.37 4.13 57.35 4.53L57.35 4.53L57.35 4.53Q57.31 5.26 57.29 5.32L57.29 5.32L56.79 5.30L56.79 5.30Q56.87 4.34 56.87 4.16L56.87 4.16L56.87 4.16Q56.87 3.88 56.72 3.79L56.72 3.79L56.72 3.79Q56.55 3.69 56.15 3.69L56.15 3.69L54.54 3.69L54.54 3.69Q54.04 3.69 53.92 3.79L53.92 3.79L53.92 3.79Q53.82 3.87 53.81 4.36L53.81 4.36L53.81 11.22L53.81 11.22Q53.81 11.66 53.96 11.76L53.96 11.76L53.96 11.76Q54.11 11.87 54.63 11.87L54.63 11.87L55.19 11.87L55.20 12.41L51.51 12.40L51.51 11.87L51.73 11.87L51.73 11.87Q52.40 11.87 52.54 11.79L52.54 11.79L52.54 11.79Q52.68 11.70 52.68 11.28L52.68 11.28L52.68 4.48L52.68 4.48Q52.68 3.92 52.59 3.80L52.59 3.80L52.59 3.80Q52.49 3.69 52.06 3.69L52.06 3.69L50.59 3.69L50.59 3.69Q50.41 3.69 50.34 3.71L50.34 3.71L50.34 3.71Q50.27 3.72 50.16 3.72L50.16 3.72L50.16 3.72Q50.13 3.72 50.02 3.79L50.02 3.79L50.02 3.79Q49.94 3.84 49.91 3.86L49.91 3.86L49.91 3.86Q49.88 3.88 49.84 3.99L49.84 3.99L49.84 3.99Q49.81 4.05 49.79 4.14L49.79 4.14L49.79 4.14Q49.76 4.21 49.74 4.36L49.74 4.36L49.74 4.36Q49.71 4.59 49.71 4.61L49.71 4.61L49.71 4.61Q49.71 4.80 49.70 4.95L49.70 4.95L49.70 4.95Q49.70 5.02 49.69 5.15L49.69 5.15L49.69 5.15Q49.68 5.29 49.67 5.35L49.67 5.35ZM75.26 3.64L74.76 3.64L74.76 3.08L78.28 3.08L78.26 3.64L77.53 3.64L77.53 3.64Q77.19 3.64 77.19 3.82L77.19 3.82L77.19 3.82Q77.19 3.98 77.38 4.48L77.38 4.48L79.99 10.94L82.93 4.18L82.93 4.18Q83.00 3.97 83.00 3.92L83.00 3.92L83.00 3.92Q83.00 3.79 82.90 3.74L82.90 3.74L82.90 3.74Q82.80 3.68 82.66 3.65L82.66 3.65L82.66 3.65Q82.58 3.64 82.31 3.64L82.31 3.64L81.87 3.64L81.84 3.08L84.68 3.08L84.65 3.64L84.25 3.64L84.25 3.64Q83.92 3.64 83.77 3.83L83.77 3.83L83.77 3.83Q83.69 3.93 83.22 4.94L83.22 4.94L83.22 4.94Q83.01 5.46 82.94 5.57L82.94 5.57L79.81 12.63L79.57 12.63L76.32 4.73L76.32 4.73Q76.00 3.93 75.86 3.79L75.86 3.79L75.86 3.79Q75.70 3.63 75.26 3.64L75.26 3.64ZM93.00 3.64L92.42 3.64L92.43 3.08L95.94 3.08L95.94 3.64L95.71 3.64L95.71 3.64Q95.16 3.64 94.99 3.73L94.99 3.73L94.99 3.73Q94.86 3.81 94.86 4.28L94.86 4.28L94.86 11.22L94.86 11.22Q94.86 11.68 94.96 11.77L94.96 11.77L94.96 11.77Q95.07 11.87 95.61 11.87L95.61 11.87L96.15 11.87L96.17 12.41L92.59 12.41L92.57 11.87L92.93 11.87L92.93 11.87Q93.50 11.87 93.61 11.77L93.61 11.77L93.61 11.77Q93.72 11.67 93.72 11.25L93.72 11.25L93.72 4.14L93.72 4.14Q93.72 3.77 93.62 3.71L93.62 3.71L93.62 3.71Q93.51 3.64 93.00 3.64L93.00 3.64ZM104.40 3.64L103.91 3.64L103.92 3.08L107.51 3.08L107.51 3.64L106.87 3.64L106.87 3.64Q106.50 3.64 106.38 3.72L106.38 3.72L106.38 3.72Q106.27 3.80 106.27 4.16L106.27 4.16L106.27 11.22L106.27 11.22Q106.27 11.57 106.36 11.67L106.36 11.67L106.36 11.67Q106.44 11.77 106.74 11.77L106.74 11.77L106.74 11.77Q109.61 11.74 110.26 11.63L110.26 11.63L110.26 11.63Q110.48 11.61 110.56 11.39L110.56 11.39L110.56 11.39Q110.64 11.17 110.84 10.05L110.84 10.05L111.33 10.08L110.87 12.41L104.10 12.41L104.09 11.87L104.48 11.87L104.48 11.87Q104.99 11.87 105.05 11.80L105.05 11.80L105.05 11.80Q105.14 11.72 105.14 11.33L105.14 11.33L105.14 4.09L105.14 4.09Q105.14 3.80 104.99 3.72L104.99 3.72L104.99 3.72Q104.84 3.64 104.40 3.64L104.40 3.64ZM119.55 3.64L119.06 3.64L119.08 3.08L122.66 3.08L122.66 3.64L122.03 3.64L122.03 3.64Q121.65 3.64 121.54 3.72L121.54 3.72L121.54 3.72Q121.43 3.80 121.43 4.16L121.43 4.16L121.43 11.22L121.43 11.22Q121.43 11.57 121.51 11.67L121.51 11.67L121.51 11.67Q121.60 11.77 121.89 11.77L121.89 11.77L121.89 11.77Q124.76 11.74 125.42 11.63L125.42 11.63L125.42 11.63Q125.63 11.61 125.71 11.39L125.71 11.39L125.71 11.39Q125.79 11.17 125.99 10.05L125.99 10.05L126.49 10.08L126.02 12.41L119.26 12.41L119.25 11.87L119.64 11.87L119.64 11.87Q120.14 11.87 120.21 11.80L120.21 11.80L120.21 11.80Q120.29 11.72 120.30 11.33L120.30 11.33L120.30 4.09L120.30 4.09Q120.30 3.80 120.14 3.72L120.14 3.72L120.14 3.72Q119.99 3.64 119.55 3.64L119.55 3.64ZM134.23 12.41L134.22 11.87L134.39 11.87L134.39 11.87Q134.78 11.87 134.91 11.73L134.91 11.73L134.91 11.73Q135.03 11.57 135.37 10.83L135.37 10.83L136.27 8.82L136.85 7.53L136.85 7.53Q137.12 6.97 137.16 6.86L137.16 6.86L137.16 6.86Q137.22 6.70 137.28 6.60L137.28 6.60L137.28 6.60Q137.33 6.51 137.34 6.45L137.34 6.45L137.44 6.21L138.87 2.74L139.16 2.74L139.16 2.74Q140.01 4.98 142.20 10.25L142.20 10.25L142.20 10.25Q142.65 11.34 142.84 11.64L142.84 11.64L142.84 11.64Q142.98 11.87 143.42 11.87L143.42 11.87L143.63 11.87L143.62 12.41L140.42 12.41L140.44 11.87L140.85 11.87L140.85 11.87Q141.47 11.87 141.47 11.70L141.47 11.70L141.47 11.70Q141.47 11.63 141.33 11.27L141.33 11.27L140.29 8.72L137.05 8.72L135.94 11.18L135.94 11.18Q135.80 11.50 135.80 11.63L135.80 11.63L135.80 11.63Q135.80 11.79 135.90 11.83L135.90 11.83L135.90 11.83Q135.99 11.87 136.38 11.87L136.38 11.87L136.95 11.87L136.95 12.41L134.23 12.41ZM138.73 4.79L137.31 8.10L140.05 8.10L138.73 4.79ZM151.74 8.24L151.74 8.24L151.74 8.24Q151.74 6.92 152.36 5.72L152.36 5.72L152.36 5.72Q152.97 4.52 154.21 3.72L154.21 3.72L154.21 3.72Q155.44 2.92 157.06 2.92L157.06 2.92L157.06 2.92Q158.33 2.92 159.92 3.57L159.92 3.57L159.92 2.86L160.48 2.86L160.58 5.92L160.03 5.93L159.93 4.48L159.93 4.48Q159.85 4.41 159.58 4.24L159.58 4.24L159.58 4.24Q159.33 4.07 158.57 3.83L158.57 3.83L158.57 3.83Q157.85 3.60 156.95 3.60L156.95 3.60L156.95 3.60Q155.97 3.60 155.20 3.93L155.20 3.93L155.20 3.93Q154.43 4.27 153.97 4.83L153.97 4.83L153.97 4.83Q153.50 5.39 153.25 6.08L153.25 6.08L153.25 6.08Q153.00 6.78 153.00 7.57L153.00 7.57L153.00 7.57Q153.00 9.33 154.12 10.69L154.12 10.69L154.12 10.69Q155.24 12.05 157.10 12.05L157.10 12.05L157.10 12.05Q157.80 12.05 158.43 11.85L158.43 11.85L158.43 11.85Q159.07 11.66 159.28 11.48L159.28 11.48L159.52 11.28L159.52 8.78L157.86 8.78L157.85 8.23L161.71 8.23L161.72 8.78L160.66 8.78L160.66 11.64L159.87 11.98L159.87 11.98Q159.17 12.30 158.95 12.39L158.95 12.39L158.95 12.39Q158.70 12.48 158.05 12.61L158.05 12.61L158.05 12.61Q157.45 12.74 156.84 12.74L156.84 12.74L156.84 12.74Q155.54 12.74 154.57 12.37L154.57 12.37L154.57 12.37Q153.58 12.00 152.96 11.36L152.96 11.36L152.96 11.36Q152.37 10.76 152.05 9.94L152.05 9.94L152.05 9.94Q151.74 9.15 151.74 8.24ZM169.48 3.64L169.46 3.08L176.67 3.08L176.67 3.08Q176.69 4.14 176.74 5.28L176.74 5.28L176.20 5.30L176.20 5.30Q176.18 4.66 176.13 4.25L176.13 4.25L176.13 4.25Q176.09 3.89 176.03 3.80L176.03 3.80L176.03 3.80Q175.98 3.71 175.86 3.69L175.86 3.69L175.86 3.69Q175.77 3.68 175.18 3.68L175.18 3.68L172.80 3.68L172.80 3.68Q172.25 3.68 172.11 3.77L172.11 3.77L172.11 3.77Q171.99 3.86 171.99 4.33L171.99 4.33L171.99 6.28L171.99 6.28Q171.99 6.69 172.04 6.76L172.04 6.76L172.04 6.76Q172.11 6.84 172.45 6.84L172.45 6.84L174.56 6.84L174.56 6.84Q174.92 6.84 175.01 6.73L175.01 6.73L175.01 6.73Q175.09 6.63 175.10 6.14L175.10 6.14L175.10 5.61L175.61 5.63L175.61 8.97L175.10 8.97L175.10 8.24L175.10 8.24Q175.10 7.66 175.02 7.57L175.02 7.57L175.02 7.57Q174.94 7.46 174.59 7.46L174.59 7.46L172.49 7.46L172.49 7.46Q172.16 7.46 172.07 7.54L172.07 7.54L172.07 7.54Q171.99 7.63 171.99 7.89L171.99 7.89L171.99 11.20L171.99 11.20Q171.99 11.57 172.07 11.67L172.07 11.67L172.07 11.67Q172.16 11.77 172.43 11.77L172.43 11.77L172.43 11.77Q175.35 11.75 175.88 11.69L175.88 11.69L175.88 11.69Q176.39 11.63 176.48 11.38L176.48 11.38L176.48 11.36L176.49 11.35L176.72 10.17L177.19 10.25L176.85 12.41L169.74 12.41L169.74 11.87L170.11 11.87L170.11 11.87Q170.67 11.87 170.75 11.80L170.75 11.80L170.75 11.80Q170.85 11.72 170.85 11.33L170.85 11.33L170.85 4.24L170.85 4.24Q170.85 3.82 170.70 3.73L170.70 3.73L170.70 3.73Q170.53 3.64 169.87 3.64L169.87 3.64L169.48 3.64Z"></path></g></svg>